G04 Layer_Physical_Order=1*
G04 Layer_Color=255*
%FSLAX44Y44*%
%MOMM*%
G71*
G01*
G75*
%ADD10C,0.4000*%
%ADD11R,1.1000X0.9000*%
%ADD12R,0.7000X0.9000*%
G04:AMPARAMS|DCode=13|XSize=0.6mm|YSize=0.6mm|CornerRadius=0.15mm|HoleSize=0mm|Usage=FLASHONLY|Rotation=180.000|XOffset=0mm|YOffset=0mm|HoleType=Round|Shape=RoundedRectangle|*
%AMROUNDEDRECTD13*
21,1,0.6000,0.3000,0,0,180.0*
21,1,0.3000,0.6000,0,0,180.0*
1,1,0.3000,-0.1500,0.1500*
1,1,0.3000,0.1500,0.1500*
1,1,0.3000,0.1500,-0.1500*
1,1,0.3000,-0.1500,-0.1500*
%
%ADD13ROUNDEDRECTD13*%
G04:AMPARAMS|DCode=14|XSize=0.6mm|YSize=0.6mm|CornerRadius=0.15mm|HoleSize=0mm|Usage=FLASHONLY|Rotation=270.000|XOffset=0mm|YOffset=0mm|HoleType=Round|Shape=RoundedRectangle|*
%AMROUNDEDRECTD14*
21,1,0.6000,0.3000,0,0,270.0*
21,1,0.3000,0.6000,0,0,270.0*
1,1,0.3000,-0.1500,-0.1500*
1,1,0.3000,-0.1500,0.1500*
1,1,0.3000,0.1500,0.1500*
1,1,0.3000,0.1500,-0.1500*
%
%ADD14ROUNDEDRECTD14*%
%ADD15R,0.6000X0.8000*%
%ADD16R,0.8000X0.6000*%
%ADD17P,0.7071X4X115.0*%
%ADD18R,0.5000X0.5000*%
G04:AMPARAMS|DCode=19|XSize=0.5mm|YSize=0.6mm|CornerRadius=0.125mm|HoleSize=0mm|Usage=FLASHONLY|Rotation=0.000|XOffset=0mm|YOffset=0mm|HoleType=Round|Shape=RoundedRectangle|*
%AMROUNDEDRECTD19*
21,1,0.5000,0.3500,0,0,0.0*
21,1,0.2500,0.6000,0,0,0.0*
1,1,0.2500,0.1250,-0.1750*
1,1,0.2500,-0.1250,-0.1750*
1,1,0.2500,-0.1250,0.1750*
1,1,0.2500,0.1250,0.1750*
%
%ADD19ROUNDEDRECTD19*%
G04:AMPARAMS|DCode=20|XSize=0.6mm|YSize=0.6mm|CornerRadius=0.15mm|HoleSize=0mm|Usage=FLASHONLY|Rotation=45.000|XOffset=0mm|YOffset=0mm|HoleType=Round|Shape=RoundedRectangle|*
%AMROUNDEDRECTD20*
21,1,0.6000,0.3000,0,0,45.0*
21,1,0.3000,0.6000,0,0,45.0*
1,1,0.3000,0.2121,0.0000*
1,1,0.3000,0.0000,-0.2121*
1,1,0.3000,-0.2121,0.0000*
1,1,0.3000,0.0000,0.2121*
%
%ADD20ROUNDEDRECTD20*%
%ADD21R,0.9000X0.8000*%
%ADD22R,0.7000X0.9000*%
%ADD23R,0.9000X0.7000*%
%ADD24C,0.3000*%
%ADD25R,3.3000X0.5250*%
%ADD26C,0.5000*%
G36*
X10250Y46250D02*
X33750D01*
Y25000D01*
X10250D01*
Y10000D01*
X48750D01*
Y0D01*
X0D01*
Y74250D01*
X10250D01*
Y46250D01*
D02*
G37*
G36*
X145000Y0D02*
X70250D01*
Y10000D01*
X82000D01*
Y22000D01*
X92000D01*
Y10000D01*
X135000D01*
Y97500D01*
X116250D01*
Y112500D01*
X135000D01*
Y127000D01*
X86750D01*
Y137000D01*
X145000D01*
Y0D01*
D02*
G37*
G36*
X65250Y127000D02*
X10000D01*
Y107500D01*
X15000Y102500D01*
X40500Y102500D01*
X40500Y96648D01*
X39602Y95750D01*
X7500Y95750D01*
Y95750D01*
X0D01*
Y137000D01*
X65250D01*
Y127000D01*
D02*
G37*
D10*
X75000Y108500D02*
X73165Y110214D01*
X71217Y111798D01*
X69166Y113246D01*
X67021Y114551D01*
X64792Y115706D01*
X62489Y116706D01*
X60123Y117547D01*
X57706Y118224D01*
X55248Y118735D01*
X52760Y119077D01*
X50255Y119248D01*
X47745D01*
X45240Y119077D01*
X42752Y118735D01*
X40294Y118224D01*
X37877Y117547D01*
X35511Y116706D01*
X33208Y115706D01*
X30979Y114551D01*
X28834Y113246D01*
X26783Y111798D01*
X24835Y110214D01*
X23000Y108500D01*
X68500Y104000D02*
X66630Y105705D01*
X64610Y107230D01*
X62458Y108563D01*
X60193Y109691D01*
X57833Y110605D01*
X55398Y111298D01*
X52911Y111763D01*
X50391Y111996D01*
X47860D01*
X45340Y111763D01*
X42852Y111298D01*
X40417Y110605D01*
X38057Y109691D01*
X35792Y108563D01*
X33640Y107230D01*
X31621Y105705D01*
X29750Y104000D01*
X81250Y85000D02*
X91250D01*
X71250Y85000D02*
X72250Y84000D01*
X71250Y85000D02*
X71250Y85000D01*
X72250Y75000D02*
Y84000D01*
X91250Y85000D02*
X91250Y85000D01*
X91250Y75000D02*
Y85000D01*
X108000Y85000D02*
X108000Y85000D01*
Y74000D02*
Y85000D01*
X75000Y108500D02*
Y108500D01*
Y96000D02*
Y108500D01*
X68500Y104000D02*
Y104000D01*
Y97750D02*
Y104000D01*
X23000Y98750D02*
Y108500D01*
X29750Y99000D02*
Y104000D01*
X59600Y17100D02*
X62750Y20250D01*
X74250Y30250D02*
X87000D01*
X108000Y49250D02*
Y64000D01*
X103000Y44250D02*
X108000Y49250D01*
X74250Y44250D02*
X103000D01*
X74250Y54000D02*
X74250Y54000D01*
X74250Y44250D02*
Y54000D01*
X62750Y30250D02*
X74250D01*
X52750D02*
X62750D01*
X51750Y41250D02*
X52750Y40250D01*
X42500Y41250D02*
X51750D01*
X51088Y72250D02*
X51804Y71534D01*
X38000Y72250D02*
X51088D01*
X38000Y72250D02*
X38000Y72250D01*
X22250Y72250D02*
X38000D01*
X5000Y85000D02*
X19500D01*
X22250Y82250D01*
X108000Y95000D02*
Y105500D01*
X108000Y95000D02*
X108000Y95000D01*
X108000Y74000D02*
X108000Y74000D01*
X76100Y126650D02*
Y132000D01*
X59600Y5000D02*
Y17100D01*
X41500Y30000D02*
Y40250D01*
X42500Y41250D01*
Y52500D01*
X42500Y52500D01*
X96035Y106965D02*
X97500Y105500D01*
X108000D01*
X81250Y85000D02*
X81250Y85000D01*
X71250Y85000D02*
X81250D01*
X76100Y126650D02*
X88840Y113911D01*
D11*
X74250Y54000D02*
D03*
D12*
X91250D02*
D03*
Y75000D02*
D03*
X72250D02*
D03*
D13*
X52750Y30250D02*
D03*
Y40250D02*
D03*
X91250Y85000D02*
D03*
Y95000D02*
D03*
X62750Y20250D02*
D03*
Y30250D02*
D03*
X108000Y95000D02*
D03*
Y85000D02*
D03*
X22250Y72250D02*
D03*
Y82250D02*
D03*
X71250Y85000D02*
D03*
Y95000D02*
D03*
D14*
X41500Y30000D02*
D03*
X31500D02*
D03*
X42500Y52500D02*
D03*
X52500Y52500D02*
D03*
X108000Y105500D02*
D03*
X118000D02*
D03*
D15*
X87000Y18000D02*
D03*
Y30000D02*
D03*
D16*
X30500Y41250D02*
D03*
X42500D02*
D03*
D17*
X51804Y71534D02*
D03*
X60696Y95966D02*
D03*
D18*
X38000Y72250D02*
D03*
X38000Y98250D02*
D03*
D19*
X108000Y74000D02*
D03*
Y64000D02*
D03*
X84250Y95000D02*
D03*
Y85000D02*
D03*
D20*
X88965Y114036D02*
D03*
X96035Y106965D02*
D03*
D21*
X74250Y44250D02*
D03*
Y30250D02*
D03*
D22*
X76100Y132000D02*
D03*
X59600Y5000D02*
D03*
D23*
X5000Y85000D02*
D03*
D24*
X91250Y54000D02*
Y61000D01*
X87250Y65000D02*
X91250Y61000D01*
X65000Y65000D02*
X87250D01*
X52500Y52500D02*
X65000Y65000D01*
D25*
X77750Y95375D02*
D03*
D26*
X7000Y6750D02*
D03*
X45000D02*
D03*
X18750D02*
D03*
X32500D02*
D03*
X73750D02*
D03*
X87000Y7000D02*
D03*
X106250D02*
D03*
X138250Y6750D02*
D03*
X123750Y7000D02*
D03*
X138250Y130000D02*
D03*
X7000Y130000D02*
D03*
Y99250D02*
D03*
Y70750D02*
D03*
X61250Y129750D02*
D03*
X90000Y130250D02*
D03*
X7000Y116250D02*
D03*
X18750Y130000D02*
D03*
X32500D02*
D03*
X46250D02*
D03*
X105000D02*
D03*
X122500D02*
D03*
X138250Y101000D02*
D03*
Y67500D02*
D03*
Y84000D02*
D03*
Y116750D02*
D03*
X26500Y99250D02*
D03*
X125000Y108750D02*
D03*
X7000Y37750D02*
D03*
Y21250D02*
D03*
Y54750D02*
D03*
X138250Y35500D02*
D03*
Y19000D02*
D03*
Y52500D02*
D03*
X16250Y41250D02*
D03*
Y30000D02*
D03*
X125000Y101250D02*
D03*
M02*
