G04 Layer_Color=65535*
%FSLAX44Y44*%
%MOMM*%
G71*
G01*
G75*
%ADD27C,0.1500*%
%ADD28C,0.2540*%
%ADD29C,0.2000*%
D27*
X69350Y42050D02*
X68100Y44215D01*
X65600D01*
X64350Y42050D01*
X65600Y39885D01*
X68100D01*
X69350Y42050D01*
X57750Y45250D02*
X55360Y46367D01*
X52750Y46750D01*
X50140Y46367D01*
X47750Y45250D01*
Y25250D02*
X50140Y24133D01*
X52750Y23750D01*
X55360Y24133D01*
X57750Y25250D01*
X26500Y35000D02*
X25383Y32610D01*
X25000Y30000D01*
X25383Y27390D01*
X26500Y25000D01*
X46500D02*
X47617Y27390D01*
X48000Y30000D01*
X47617Y32610D01*
X46500Y35000D01*
X57500Y47500D02*
X58617Y49890D01*
X59000Y52500D01*
X58617Y55110D01*
X57500Y57500D01*
X37500D02*
X36383Y55110D01*
X36000Y52500D01*
X36383Y49890D01*
X37500Y47500D01*
X96250Y100000D02*
X93860Y101117D01*
X91250Y101500D01*
X88640Y101117D01*
X86250Y100000D01*
Y80000D02*
X88640Y78883D01*
X91250Y78500D01*
X93860Y78883D01*
X96250Y80000D01*
X67750Y35250D02*
X65360Y36367D01*
X62750Y36750D01*
X60140Y36367D01*
X57750Y35250D01*
Y15250D02*
X60140Y14133D01*
X62750Y13750D01*
X65360Y14133D01*
X67750Y15250D01*
X103000Y80000D02*
X105390Y78883D01*
X108000Y78500D01*
X110610Y78883D01*
X113000Y80000D01*
Y100000D02*
X110610Y101117D01*
X108000Y101500D01*
X105390Y101117D01*
X103000Y100000D01*
X123000Y100500D02*
X124117Y102890D01*
X124500Y105500D01*
X124117Y108110D01*
X123000Y110500D01*
X103000D02*
X101883Y108110D01*
X101500Y105500D01*
X101883Y102890D01*
X103000Y100500D01*
X96035Y99893D02*
X98515Y100794D01*
X100632Y102368D01*
X102206Y104485D01*
X103107Y106965D01*
X88964Y121107D02*
X86485Y120206D01*
X84368Y118632D01*
X82794Y116515D01*
X81893Y114036D01*
X69600Y5000D02*
X69286Y7487D01*
X68363Y9818D01*
X66890Y11846D01*
X64958Y13443D01*
X62690Y14511D01*
X60228Y14980D01*
X57726Y14823D01*
X55342Y14048D01*
X53226Y12705D01*
X51510Y10878D01*
X50302Y8681D01*
X49679Y6253D01*
Y3747D01*
X50302Y1319D01*
X51510Y-878D01*
X53226Y-2705D01*
X55342Y-4048D01*
X57726Y-4823D01*
X60228Y-4980D01*
X62690Y-4511D01*
X64958Y-3443D01*
X66890Y-1846D01*
X68363Y182D01*
X69286Y2513D01*
X69600Y5000D01*
X27250Y87250D02*
X24860Y88367D01*
X22250Y88750D01*
X19640Y88367D01*
X17250Y87250D01*
Y67250D02*
X19640Y66133D01*
X22250Y65750D01*
X24860Y66133D01*
X27250Y67250D01*
X15000Y85000D02*
X14686Y87487D01*
X13763Y89817D01*
X12290Y91846D01*
X10358Y93443D01*
X8090Y94511D01*
X5628Y94980D01*
X3126Y94823D01*
X742Y94048D01*
X-1374Y92705D01*
X-3090Y90878D01*
X-4298Y88681D01*
X-4921Y86253D01*
Y83747D01*
X-4298Y81319D01*
X-3090Y79122D01*
X-1374Y77295D01*
X742Y75952D01*
X3126Y75177D01*
X5628Y75020D01*
X8090Y75489D01*
X10358Y76557D01*
X12290Y78155D01*
X13763Y80183D01*
X14686Y82513D01*
X15000Y85000D01*
X76250Y100000D02*
X73860Y101117D01*
X71250Y101500D01*
X68640Y101117D01*
X66250Y100000D01*
Y80000D02*
X68640Y78883D01*
X71250Y78500D01*
X73860Y78883D01*
X76250Y80000D01*
X86100Y132000D02*
X85786Y134487D01*
X84863Y136818D01*
X83390Y138846D01*
X81458Y140443D01*
X79190Y141511D01*
X76728Y141980D01*
X74226Y141823D01*
X71842Y141048D01*
X69726Y139705D01*
X68010Y137878D01*
X66802Y135681D01*
X66179Y133253D01*
Y130747D01*
X66802Y128319D01*
X68010Y126122D01*
X69726Y124295D01*
X71842Y122952D01*
X74226Y122177D01*
X76728Y122020D01*
X79190Y122489D01*
X81458Y123557D01*
X83390Y125154D01*
X84863Y127182D01*
X85786Y129513D01*
X86100Y132000D01*
X63500Y47000D02*
Y82000D01*
X100000D01*
Y47000D02*
Y82000D01*
X63500Y47000D02*
X100000D01*
X57750Y25250D02*
Y45250D01*
X47750Y25250D02*
Y45250D01*
X26500Y35000D02*
X46500D01*
X26500Y25000D02*
X46500D01*
X37500Y47500D02*
X57500D01*
X37500Y57500D02*
X57500D01*
X96250Y80000D02*
Y100000D01*
X86250Y80000D02*
Y100000D01*
X92000Y12000D02*
Y36000D01*
X82000Y12000D02*
X92000D01*
X82000D02*
Y36000D01*
X92000D01*
X24500Y36250D02*
X48500D01*
X24500D02*
Y46250D01*
X48500D01*
Y36250D02*
Y46250D01*
X42362Y67521D02*
X56457Y62391D01*
X70138Y99979D01*
X56043Y105109D02*
X70138Y99979D01*
X42362Y67521D02*
X56043Y105109D01*
X49634Y102121D02*
X56474Y120914D01*
X43657Y114938D02*
X62451Y108097D01*
X30500Y65250D02*
X45500D01*
Y105250D01*
X30500Y105250D02*
X45500Y105250D01*
X30500Y65250D02*
X30500Y105250D01*
X25500Y120250D02*
X25500Y100250D01*
X15500Y110250D02*
X35500D01*
X67750Y15250D02*
Y35250D01*
X57750Y15250D02*
Y35250D01*
X113080Y58840D02*
Y79160D01*
X102920Y58840D02*
X113080D01*
X102920D02*
Y79160D01*
X113080D01*
X103000Y80000D02*
Y100000D01*
X113000Y80000D02*
Y100000D01*
X103000Y100500D02*
X123000D01*
X103000Y110500D02*
X123000D01*
X81893Y114036D02*
X96035Y99893D01*
X88964Y121107D02*
X103107Y106965D01*
X27250Y67250D02*
Y87250D01*
X17250Y67250D02*
Y87250D01*
X76250Y80000D02*
Y100000D01*
X66250Y80000D02*
Y100000D01*
X89330Y79840D02*
Y100160D01*
X79170Y79840D02*
X89330D01*
X79170D02*
Y100160D01*
X89330D01*
X67250Y24250D02*
Y50250D01*
X81250D01*
Y24250D02*
Y50250D01*
X67250Y24250D02*
X81250D01*
D28*
X65390Y105691D02*
Y95534D01*
X70468Y90456D01*
X75547Y95534D01*
Y105691D01*
X80625D02*
X90782D01*
X85703D01*
Y90456D01*
X95860Y103152D02*
X98399Y105691D01*
X103478D01*
X106017Y103152D01*
Y100613D01*
X100939Y95534D01*
Y92995D02*
Y90456D01*
X99571Y118985D02*
X95980Y122576D01*
X97776Y124372D01*
X98973D01*
X100169Y123175D01*
X100170Y121978D01*
X98374Y120182D01*
X99571Y121379D02*
X101965D01*
X103162Y122576D02*
X104359Y123773D01*
X103760Y123175D01*
X100170Y126766D01*
X100169Y125569D01*
X103162Y128561D02*
X103162Y129758D01*
X104359Y130955D01*
X105556D01*
X107950Y128561D01*
X107950Y127364D01*
X106753Y126167D01*
X105556D01*
X103162Y128561D01*
X9500Y92750D02*
X14578D01*
Y90211D01*
X13732Y89365D01*
X12039D01*
X11193Y90211D01*
Y92750D01*
Y91057D02*
X9500Y89365D01*
Y84286D02*
Y87672D01*
X12886Y84286D01*
X13732D01*
X14578Y85133D01*
Y86825D01*
X13732Y87672D01*
X125386Y70232D02*
X124539Y71078D01*
X122846D01*
X122000Y70232D01*
Y66846D01*
X122846Y66000D01*
X124539D01*
X125386Y66846D01*
X127078Y70232D02*
X127925Y71078D01*
X129618D01*
X130464Y70232D01*
Y69386D01*
X129618Y68539D01*
X128771D01*
X129618D01*
X130464Y67693D01*
Y66846D01*
X129618Y66000D01*
X127925D01*
X127078Y66846D01*
X68920Y73765D02*
Y58530D01*
X79077D01*
X84155D02*
X89233D01*
X86694D01*
Y73765D01*
X84155Y71226D01*
D29*
X22922Y81250D02*
X26307D01*
X28000Y82943D01*
X26307Y84636D01*
X22922D01*
Y86328D02*
X28000D01*
Y88868D01*
X27154Y89714D01*
X23768D01*
X22922Y88868D01*
Y86328D01*
X28000Y94792D02*
Y91407D01*
X24615Y94792D01*
X23768D01*
X22922Y93946D01*
Y92253D01*
X23768Y91407D01*
X42986Y66313D02*
X41828Y63132D01*
X42840Y60962D01*
X45010Y61974D01*
X46168Y65155D01*
X47758Y64576D02*
X46022Y59804D01*
X48408Y58936D01*
X49493Y59442D01*
X50650Y62623D01*
X50145Y63708D01*
X47758Y64576D01*
X50794Y58067D02*
X52384Y57488D01*
X51589Y57778D01*
X53326Y62550D01*
X52241Y62044D01*
X123750Y113250D02*
Y118328D01*
X126289D01*
X127136Y117482D01*
Y115789D01*
X126289Y114943D01*
X123750D01*
X125443D02*
X127136Y113250D01*
X128828Y114096D02*
X129675Y113250D01*
X131368D01*
X132214Y114096D01*
Y117482D01*
X131368Y118328D01*
X129675D01*
X128828Y117482D01*
Y116636D01*
X129675Y115789D01*
X132214D01*
X90250Y103750D02*
Y108828D01*
X92789D01*
X93636Y107982D01*
Y106289D01*
X92789Y105443D01*
X90250D01*
X91943D02*
X93636Y103750D01*
X95328Y107982D02*
X96175Y108828D01*
X97868D01*
X98714Y107982D01*
Y107135D01*
X97868Y106289D01*
X98714Y105443D01*
Y104596D01*
X97868Y103750D01*
X96175D01*
X95328Y104596D01*
Y105443D01*
X96175Y106289D01*
X95328Y107135D01*
Y107982D01*
X96175Y106289D02*
X97868D01*
X116750Y86500D02*
Y91578D01*
X119289D01*
X120136Y90732D01*
Y89039D01*
X119289Y88193D01*
X116750D01*
X118443D02*
X120136Y86500D01*
X121828Y91578D02*
X125214D01*
Y90732D01*
X121828Y87346D01*
Y86500D01*
X67500Y105000D02*
Y110078D01*
X70039D01*
X70886Y109232D01*
Y107539D01*
X70039Y106693D01*
X67500D01*
X69193D02*
X70886Y105000D01*
X75964Y110078D02*
X74271Y109232D01*
X72578Y107539D01*
Y105846D01*
X73425Y105000D01*
X75118D01*
X75964Y105846D01*
Y106693D01*
X75118Y107539D01*
X72578D01*
X65250Y6750D02*
Y11828D01*
X67789D01*
X68636Y10982D01*
Y9289D01*
X67789Y8443D01*
X65250D01*
X66943D02*
X68636Y6750D01*
X73714Y11828D02*
X70328D01*
Y9289D01*
X72021Y10136D01*
X72867D01*
X73714Y9289D01*
Y7596D01*
X72867Y6750D01*
X71175D01*
X70328Y7596D01*
X40000Y43750D02*
X45078D01*
Y41211D01*
X44232Y40364D01*
X42539D01*
X41693Y41211D01*
Y43750D01*
Y42057D02*
X40000Y40364D01*
Y36132D02*
X45078D01*
X42539Y38672D01*
Y35286D01*
X51000Y45500D02*
X56078D01*
Y42961D01*
X55232Y42114D01*
X53539D01*
X52693Y42961D01*
Y45500D01*
Y43807D02*
X51000Y42114D01*
X55232Y40422D02*
X56078Y39575D01*
Y37882D01*
X55232Y37036D01*
X54386D01*
X53539Y37882D01*
Y38729D01*
Y37882D01*
X52693Y37036D01*
X51846D01*
X51000Y37882D01*
Y39575D01*
X51846Y40422D01*
X31500Y16750D02*
Y21828D01*
X34039D01*
X34886Y20982D01*
Y19289D01*
X34039Y18443D01*
X31500D01*
X33193D02*
X34886Y16750D01*
X36578D02*
X38271D01*
X37425D01*
Y21828D01*
X36578Y20982D01*
X83386Y109732D02*
X82539Y110578D01*
X80846D01*
X80000Y109732D01*
Y106346D01*
X80846Y105500D01*
X82539D01*
X83386Y106346D01*
X87618Y105500D02*
Y110578D01*
X85078Y108039D01*
X88464D01*
X99136Y26982D02*
X98289Y27828D01*
X96596D01*
X95750Y26982D01*
Y23596D01*
X96596Y22750D01*
X98289D01*
X99136Y23596D01*
X104214Y22750D02*
X100828D01*
X104214Y26136D01*
Y26982D01*
X103368Y27828D01*
X101675D01*
X100828Y26982D01*
X18136Y38482D02*
X17289Y39328D01*
X15596D01*
X14750Y38482D01*
Y35096D01*
X15596Y34250D01*
X17289D01*
X18136Y35096D01*
X19828Y34250D02*
X21521D01*
X20675D01*
Y39328D01*
X19828Y38482D01*
X9750Y68000D02*
X11443D01*
X10596D01*
Y73078D01*
X9750Y72232D01*
X47386Y8750D02*
X44000D01*
X47386Y12136D01*
Y12982D01*
X46539Y13828D01*
X44846D01*
X44000Y12982D01*
X62250Y125482D02*
X63096Y126328D01*
X64789D01*
X65636Y125482D01*
Y124636D01*
X64789Y123789D01*
X63943D01*
X64789D01*
X65636Y122943D01*
Y122096D01*
X64789Y121250D01*
X63096D01*
X62250Y122096D01*
M02*
